<?xml version="1.0" encoding="utf-8"?>
<!-- Generator: Adobe Illustrator 26.1.0, SVG Export Plug-In . SVG Version: 6.00 Build 0)  -->
<svg version="1.1" id="Calque_1" xmlns="http://www.w3.org/2000/svg" xmlns:xlink="http://www.w3.org/1999/xlink" x="0px" y="0px"
	 viewBox="0 0 144 144" style="enable-background:new 0 0 144 144;" xml:space="preserve">
<style type="text/css">
	.st0{fill:#020203;}
</style>
<g>
	<polygon class="st0" points="143,51.5 143,110 130.1,117.7 86.3,144 30.7,111.3 30.7,96.5 85.7,128.8 130.1,102.2 130.1,74.7 
		120.2,80.6 86.3,101 48.9,79.2 36.1,71.7 0,50.6 83.1,0 95.5,7.6 83.4,15.1 25.2,50.6 48.4,64.1 61.3,71.6 85.7,85.8 107.4,72.8 
		119.8,65.4 130.1,59.2 	"/>
	<polygon class="st0" points="7.5,60.8 21.1,68.9 21.1,109.4 14.3,97.6 7.5,100.8 	"/>
</g>
</svg>
