<?xml version="1.0" encoding="UTF-8"?><svg id="a" xmlns="http://www.w3.org/2000/svg" viewBox="0 0 615.12 120.83"><defs><style>.b{fill:#fff;}</style></defs><g><polygon class="b" points="119.98 43.18 119.98 92.33 109.19 98.79 72.42 120.83 25.72 93.35 25.72 80.97 71.87 108.11 109.19 85.75 109.19 62.68 100.9 67.65 72.42 84.72 41.06 66.43 30.27 60.14 0 42.49 69.73 0 80.15 6.36 69.98 12.71 21.17 42.46 40.65 53.82 51.45 60.11 71.87 72.01 90.11 61.08 100.5 54.86 109.19 49.65 119.98 43.18"/><polygon class="b" points="6.26 50.98 17.74 57.81 17.74 91.77 12 81.89 6.26 84.6 6.26 50.98"/></g><g><path class="b" d="M183.71,44.58v50.12h-50.12V44.58h50.12Zm-9.4,9.4h-31.33v31.33h31.33v-31.33Z"/><path class="b" d="M205.64,94.7h-9.4V44.58h50.12v9.4h-40.73v40.73Z"/><path class="b" d="M288.65,44.58h20.36v9.4h-20.36v40.73h-9.4V53.97h-20.36v-9.4h20.36"/><path class="b" d="M321.53,19.51h9.4v9.4h-9.4v-9.4Zm0,25.06h9.4v50.12h-9.4V44.58Z"/><path class="b" d="M352.86,94.7h-9.4V44.58h50.12v9.4h-40.73v40.73Z"/><path class="b" d="M406.11,85.3h9.4v9.4h-9.4v-9.4Z"/><path class="b" d="M437.43,44.58h40.73v9.4h-40.73v31.33h40.73v9.4h-50.12V44.58h9.4Z"/><path class="b" d="M540.81,44.58v50.12h-50.12V44.58h50.12Zm-9.4,9.4h-31.33v31.33h31.33v-31.33Z"/><path class="b" d="M563.59,53.97v40.73h-9.4V44.58h60.93v50.12h-9.4V53.97h-17.07v40.73h-9.4V53.97h-15.66Z"/></g></svg>