<?xml version="1.0" encoding="utf-8"?>
<!-- Generator: Adobe Illustrator 26.1.0, SVG Export Plug-In . SVG Version: 6.00 Build 0)  -->
<svg version="1.1" xmlns="http://www.w3.org/2000/svg" xmlns:xlink="http://www.w3.org/1999/xlink" x="0px" y="0px"
	 viewBox="0 0 100 100" style="enable-background:new 0 0 100 100;" xml:space="preserve">
<style type="text/css">
	.st0{fill:#FFFFFF;}
</style>
<g id="Calque_2">
</g>
<g id="Calque_1">
	<g>
		<path class="st0" d="M54.2,61.6h15.9v11.1c0.5-0.1,1.1-0.1,1.6-0.1l7.6-0.5V61.6h15.9c1.7,0,2.7-1.9,1.7-3.3L86,42.6h4.7
			c1.7,0,2.7-1.9,1.7-3.3l-10.6-15H85c1.7,0,2.7-2,1.7-3.4L76.5,6.6c-0.8-1.2-2.6-1.2-3.4,0L62.9,21c-1,1.4,0,3.4,1.7,3.4h3.2
			L57.2,39.3c-1,1.4,0,3.3,1.7,3.3h4.7L52.5,58.3C51.5,59.7,52.5,61.6,54.2,61.6z"/>
		<path class="st0" d="M32.2,34.7c4-1.7,5.9-6.3,4.2-10.3s-6.3-5.9-10.3-4.2c-4,1.7-5.9,6.3-4.2,10.3S28.2,36.4,32.2,34.7z"/>
		<path class="st0" d="M24.8,73.5c0.1-0.2,0.2-0.5,0.3-0.7l1.9-6l2.7,2.4l2.4,10.6l8.2-0.5v-0.1l-3-13.1c-0.2-0.8-0.7-1.6-1.3-2.2
			l-6.3-5.4l1.8-10l2,1.3c0.6,0.4,1.2,0.6,1.9,0.6h6.8L44.7,79l3.4-0.2l-2.4-28.6c1.4-0.5,2.4-1.8,2.4-3.4c0-2-1.6-3.6-3.6-3.6h-8
			c0,0-3.3-2.3-6.9-4.9c-4.6-3.1-9.7-1.2-11.1,2.9c-1,3.1-1.6,8.7-2.2,13.7L16.2,56c-0.2,1.9,0.3,3.7,1.5,5.2c0.6,0.7,1.2,1.2,2,1.7
			l-2.3,6.9l-5.9,10.9c-0.1,0.1-0.1,0.2-0.2,0.3l9.5-0.6L24.8,73.5z"/>
		<path class="st0" d="M94.5,74.3L72,75.7c-3.8,0.2-7.5,1.3-10.9,3.1c-3.3,1.8-7,2.8-10.8,3.1L6.1,84.7c-1.2,0.1-2.3,0.9-2.6,2.1
			l-1,4c-0.4,1.8,0.9,3.5,2.7,3.5h89.4c1.6,0,2.8-1.3,2.8-2.8V77.2C97.5,75.5,96.1,74.2,94.5,74.3z"/>
	</g>
</g>
</svg>
