<?xml version="1.0" encoding="utf-8"?>
<!-- Generator: Adobe Illustrator 26.1.0, SVG Export Plug-In . SVG Version: 6.00 Build 0)  -->
<svg version="1.1" id="Calque_1" xmlns="http://www.w3.org/2000/svg" xmlns:xlink="http://www.w3.org/1999/xlink" x="0px" y="0px"
	 viewBox="0 0 64 64" style="enable-background:new 0 0 64 64;" xml:space="preserve">
<style type="text/css">
	.st0{fill:#FFFFFF;}
</style>
<g>
	<rect x="24" y="59" class="st0" width="2" height="2"/>
	<polygon class="st0" points="20.5,45.8 24,48.5 24,57 26,57 26,47.5 21.7,44.2 	"/>
	<path class="st0" d="M60,1c-1.7,0-3,1.3-3,3c0,0.4,0.1,0.7,0.2,1l-6.5,4.4C46.1,4.2,39.4,1,32,1c-7.9,0-15,3.7-19.6,9.5L6.7,5.2
		C6.9,4.9,7,4.4,7,4c0-1.7-1.3-3-3-3S1,2.3,1,4s1.3,3,3,3c0.5,0,0.9-0.1,1.3-0.3l5.9,5.4C8.6,16.1,7,20.9,7,26v2.2
		c0,7.7,3.6,15.1,9.8,19.8l3.2,2.5V63h2V49.5l-4-3.1c-5.6-4.3-9-11.1-9-18.2V26c0-4.6,1.4-8.9,3.7-12.5l2.5,2.3
		C15.1,16.2,15,16.6,15,17c0,1.2,0.7,2.2,1.7,2.7l-0.4,4.4C15,24.4,14,25.6,14,27c0,1.7,1.3,3,3,3c0.6,0,1.2-0.2,1.7-0.5l3.5,2.6
		C22.1,32.4,22,32.7,22,33c0,1.3,0.8,2.4,2,2.8V40h2v-4.2c1.2-0.4,2-1.5,2-2.8c0-1.2-0.7-2.3-1.8-2.7l0.6-7.4
		c0.8-0.2,1.4-0.7,1.8-1.4l6.4,1.1c0.2,1.4,1.5,2.5,2.9,2.5c0.2,0,0.4,0,0.5-0.1l1.2,2.1C39.3,27.6,39,28.3,39,29c0,0.1,0,0.2,0,0.2
		l-3.9,1.7C34.6,30.4,33.9,30,33,30c-1.7,0-3,1.3-3,3c0,1.3,0.8,2.4,2,2.8V40h2v-4.2c1.2-0.4,2-1.5,2-2.8c0-0.1,0-0.2,0-0.2l3.9-1.7
		c0.5,0.6,1.3,0.9,2.2,0.9c1.7,0,3-1.3,3-3c0-0.8-0.3-1.4-0.8-2l2.3-4.1c0.2,0,0.3,0,0.5,0c1.7,0,3-1.3,3-3s-1.3-3-3-3
		c-0.2,0-0.4,0-0.6,0.1l-1.1-1.8l4.9-3.3c3,3.9,4.7,8.7,4.7,14v12.3l-2.9,1l-1,10.7H44c-3.9,0-7-3.1-7-7h-2c0,4.6,3.5,8.4,8,8.9V63
		h2V52h7.9l1-11.3l3.1-1V26c0-5.7-1.9-10.9-5.1-15.1l6.5-4.4C58.9,6.8,59.4,7,60,7c1.7,0,3-1.3,3-3S61.7,1,60,1z M3,4
		c0-0.6,0.4-1,1-1s1,0.4,1,1S4.6,5,4,5S3,4.6,3,4z M33,34c-0.6,0-1-0.4-1-1s0.4-1,1-1s1,0.4,1,1S33.6,34,33,34z M30.8,11h6.9
		l-9.9,6.6c-0.1-0.1-0.2-0.1-0.3-0.2l0.9-4.5C29.5,12.8,30.4,12,30.8,11z M44.8,22l-2.3,4.1C42.3,26,42.2,26,42,26
		c-0.2,0-0.4,0-0.5,0.1l-1.2-2.1c0.5-0.5,0.7-1.2,0.7-1.9c0-1-0.5-2-1.3-2.5l1.6-6.5c0.1,0,0.2,0,0.3,0l3.1,5.2
		C44.3,18.6,44,19.3,44,20C44,20.8,44.3,21.4,44.8,22z M35.4,20.6l-6.4-1.1c0-0.1,0-0.1,0-0.2l10.3-6.9c0,0,0.1,0.1,0.1,0.1L37.7,19
		C36.7,19.1,35.9,19.7,35.4,20.6z M41,11c-0.6,0-1-0.4-1-1s0.4-1,1-1s1,0.4,1,1S41.6,11,41,11z M28,11c-0.6,0-1-0.4-1-1s0.4-1,1-1
		s1,0.4,1,1S28.6,11,28,11z M26.3,12.4c0.1,0,0.1,0.1,0.2,0.1L25.6,17c-1.5,0.2-2.6,1.4-2.6,3c0,0.3,0.1,0.6,0.2,0.9l-4.6,3.5
		c-0.1-0.1-0.2-0.1-0.3-0.2l0.4-4.4C20,19.6,21,18.4,21,17c0-0.3,0-0.5-0.1-0.8L26.3,12.4z M23.3,30.5l-3.5-2.6
		c0.1-0.3,0.1-0.6,0.1-0.9c0-0.3-0.1-0.6-0.2-0.9l4.6-3.5c0.1,0.1,0.3,0.2,0.4,0.2l-0.6,7.4C23.9,30.2,23.6,30.3,23.3,30.5z M19,17
		c0,0.6-0.4,1-1,1s-1-0.4-1-1s0.4-1,1-1S19,16.4,19,17z M16,27c0-0.6,0.4-1,1-1s1,0.4,1,1s-0.4,1-1,1S16,27.6,16,27z M25,34
		c-0.6,0-1-0.4-1-1s0.4-1,1-1s1,0.4,1,1S25.6,34,25,34z M26,21c-0.6,0-1-0.4-1-1s0.4-1,1-1s1,0.4,1,1S26.6,21,26,21z M37,22
		c0-0.6,0.4-1,1-1s1,0.4,1,1s-0.4,1-1,1S37,22.6,37,22z M42,30c-0.6,0-1-0.4-1-1s0.4-1,1-1s1,0.4,1,1S42.6,30,42,30z M48,20
		c0,0.6-0.4,1-1,1s-1-0.4-1-1s0.4-1,1-1S48,19.4,48,20z M44.3,13.6l-1-1.7c0.4-0.5,0.7-1.2,0.7-1.9c0-1.7-1.3-3-3-3
		c-1.3,0-2.4,0.8-2.8,2h-7.4c-0.4-1.2-1.5-2-2.8-2c-1.7,0-3,1.3-3,3c0,0.3,0,0.5,0.1,0.8l-5.4,3.8C19.2,14.2,18.6,14,18,14
		c-0.5,0-1,0.1-1.4,0.4l-2.7-2.5C18.1,6.5,24.7,3,32,3c6.7,0,12.8,2.9,17,7.5L44.3,13.6z M60,5c-0.6,0-1-0.4-1-1s0.4-1,1-1
		s1,0.4,1,1S60.6,5,60,5z"/>
</g>
</svg>
