<?xml version="1.0" encoding="utf-8"?>
<!-- Generator: Adobe Illustrator 26.1.0, SVG Export Plug-In . SVG Version: 6.00 Build 0)  -->
<svg version="1.1" id="Calque_1" xmlns="http://www.w3.org/2000/svg" xmlns:xlink="http://www.w3.org/1999/xlink" x="0px" y="0px"
	 viewBox="0 0 100 100" style="enable-background:new 0 0 100 100;" xml:space="preserve">
<style type="text/css">
	.st0{fill:#FFFFFF;}
</style>
<g>
	<g>
		<path class="st0" d="M37.6,48c-0.6,0-1.2,0.5-1.2,1.2c0,0.6,0.5,1.1,1.2,1.1c0.6,0,1.1-0.5,1.1-1.1C38.7,48.5,38.2,48,37.6,48z"/>
		<path class="st0" d="M69.7,36.1c0,0.7,1.3,0.7,1.3,0c0-0.4-0.3-0.6-0.7-0.6S69.7,35.8,69.7,36.1z"/>
		<path class="st0" d="M28.5,32c0-0.3-0.3-0.6-0.7-0.6s-0.7,0.3-0.7,0.6C27.1,32.7,28.5,32.7,28.5,32z"/>
		<path class="st0" d="M61.4,15.2C61.4,15.2,61.3,15.1,61.4,15.2c-0.4-0.4-0.9-0.6-1.1-0.6c0,0,0.1,0.1,0.1,0.2
			C60.6,15,61,15.1,61.4,15.2z"/>
		<polygon class="st0" points="51.6,51.2 53.6,53.6 54.1,51.5 54.4,50.5 54.9,50.3 56.2,49.8 56.2,49.8 57.3,49.3 54.6,47.7 
			54.4,44.5 52.6,46.1 52,46.6 50.9,46.3 48.9,45.8 49.3,46.6 50.2,48.7 48.5,51.4 		"/>
		<path class="st0" d="M70.1,73.8L70.1,73.8c-0.5,0-1,0.1-1.4,0.4C69.1,74.2,69.6,74,70.1,73.8z"/>
		<path class="st0" d="M54,65.1l-1.7-2c2-1.7,4.5-2.7,7.2-3c-0.8-1.9-1.9-3.9-3.3-5.9L55,59.4l-4.5-5.5l-7.1,0.6l3.8-6l-2.1-5
			c-2-1.3-4-2.3-5.9-2.9c-1.6-0.5-3.1-0.8-4.4-0.8c-1.8,0-3.2,0.5-4.2,1.5c-0.8,0.8-1.3,1.9-1.4,3.3c-0.2,1.5,0.1,3.3,0.7,5.3
			c1.4,4.2,4.3,8.6,8.3,12.6c4,3.9,8.4,6.9,12.6,8.3c3.8,1.2,6.9,1,8.6-0.7c1-1,1.5-2.4,1.5-4.2c0-1-0.2-2.1-0.5-3.3
			C58,62.8,55.7,63.6,54,65.1z M37.6,52.9c-2.1,0-3.8-1.7-3.8-3.8s1.7-3.8,3.8-3.8s3.8,1.7,3.8,3.8C41.3,51.2,39.6,52.9,37.6,52.9z"
			/>
		<polygon class="st0" points="81.2,36 84.1,35.3 86.2,37.3 86.5,34.4 89,32.9 86.3,31.8 85.7,28.9 83.8,31.1 80.9,30.8 82.4,33.3 
					"/>
		<path class="st0" d="M79.5,54.3c2.8,0,5.1-2.3,5.1-5.1c0-2.9-2.3-5.2-5.1-5.2c-2.8,0-5.2,2.3-5.2,5.2C74.3,52,76.6,54.3,79.5,54.3
			z"/>
		<path class="st0" d="M68.4,36.1c0,1.1,0.9,2,2,2s2-0.9,2-2s-0.9-2-2-2S68.4,35,68.4,36.1z"/>
		<path class="st0" d="M58.7,16.8c0.8,0.7,1.8,0.9,2.6,1c0.6,0.1,1.3,0.2,1.9,0.2c0.3,0.9,0.5,1.9,0.4,3c-0.1,2.1-0.9,4.4-2.4,6.3
			l2.1,1.6c1.8-2.4,2.9-5.2,3-7.8c0-1-0.1-2.1-0.4-3.1c3.1-0.2,6.1-1.2,8.7-2.7L73.3,13c-2.5,1.5-5.4,2.3-8.3,2.5
			c-0.5-0.9-1.1-1.6-1.9-2.3c-0.7-0.7-2-1.3-3.3-1.1c-0.8,0.1-1.4,0.6-1.8,1.2C57.3,14.4,57.6,15.9,58.7,16.8z M61.3,15.1
			C61.3,15.1,61.4,15.2,61.3,15.1c-0.3,0-0.7-0.1-0.9-0.3c0-0.1-0.1-0.2-0.1-0.2C60.5,14.6,60.9,14.8,61.3,15.1z"/>
		<path class="st0" d="M37.6,45.4c-2.1,0-3.8,1.7-3.8,3.8s1.7,3.8,3.8,3.8s3.8-1.7,3.8-3.8C41.3,47.1,39.6,45.4,37.6,45.4z
			 M37.6,50.3c-0.6,0-1.2-0.5-1.2-1.1s0.5-1.2,1.2-1.2c0.6,0,1.1,0.5,1.1,1.2C38.7,49.8,38.2,50.3,37.6,50.3z"/>
		<path class="st0" d="M43,33.3l0.5-2.6c-2.9-0.5-5.3-2.2-6.9-4.7c-1.6-2.5-2.2-5.4-1.6-8.2c0.5-2.2,1.7-4.1,3.6-5.4
			c1.9-1.2,4.1-1.7,6.4-1.2c1.7,0.3,3.2,1.3,4.2,2.8s1.3,3.2,0.9,4.9c-0.5,2.7-3.2,4.4-5.8,3.9c-1-0.2-1.8-0.8-2.3-1.6
			c-0.6-0.8-0.8-1.8-0.6-2.8c0.1-0.7,0.6-1.3,1.2-1.7c0.6-0.4,1.3-0.5,2-0.4l0.5-2.6c-1.4-0.3-2.8,0-4,0.8s-2,2-2.3,3.4
			c-0.3,1.7,0,3.3,0.9,4.8c0.9,1.4,2.4,2.4,4,2.7c4.1,0.8,8.1-1.8,9-6c0.5-2.4,0-4.8-1.3-6.9c-1.3-2-3.4-3.5-5.8-3.9
			c-2.9-0.6-5.9,0-8.4,1.6c-2.5,1.6-4.2,4.2-4.7,7.1c-0.7,3.6,0,7.2,2,10.2C36.4,30.5,39.4,32.6,43,33.3z"/>
		<path class="st0" d="M74.2,71.6c0.2-2.1-0.6-4.3-2.3-6.3c-2.3-2.8-5.8-4.7-9.5-5.1h-0.1c-0.9-2.6-2.4-5.4-4.5-8.1l5.4-2.1
			l-6.1-3.7L56.7,39l-5.4,4.7l-2.2-0.6c-3-2.3-6.1-4-9.1-5c-4.9-1.6-8.9-1.2-11.3,1.3c-1.1,1.1-1.8,2.6-2.1,4.4
			C5.5,89.3,7.7,91.5,8.4,92.2c0.4,0.4,1.1,0.6,2.1,0.6c7.7,0,31.5-11.4,46.2-18.8c1.8-0.2,3.3-1,4.5-2.1c2.1-2.1,2.7-5.3,1.9-9.1
			c2.6,0.5,5.1,2,6.7,4c1.1,1.4,1.7,2.9,1.7,4.2c-1.7-0.2-3.4,0.1-4.8,1.2c-0.6,0.5-1.1,1.2-1.1,2c0,0.6,0.1,1.2,0.5,1.6
			c0.3,0.3,0.7,0.6,1.2,0.7c1.3,0.4,2.7,0.2,4-0.5c0.8-0.5,1.5-1.2,2-2c0.3,0.1,0.6,0.2,0.9,0.3c4.5,1.4,8.7,3.2,12.7,5.6l1.3-2.3
			c-4.2-2.4-8.7-4.4-13.3-5.8C74.8,71.7,74.5,71.6,74.2,71.6z M49.3,46.6L49,45.8l2,0.5l1.1,0.3l0.6-0.5l1.8-1.6l0.2,3.2l2.7,1.6
			l-1.2,0.5l0,0l-1.3,0.5l-0.5,0.2l-0.2,1l-0.5,2.1l-2-2.4l-3.2,0.3l1.7-2.7L49.3,46.6z M59.4,70.1c-1.7,1.7-4.8,1.9-8.6,0.7
			c-4.2-1.4-8.6-4.3-12.6-8.3c-3.9-4-6.9-8.4-8.3-12.6c-0.6-2-0.9-3.8-0.7-5.3c0.1-1.4,0.6-2.5,1.4-3.3c1-1,2.4-1.5,4.2-1.5
			c1.3,0,2.8,0.3,4.4,0.8c1.9,0.6,3.9,1.6,5.9,2.9l2.1,5l-3.8,6l7.1-0.6l4.5,5.5l1.2-5.2c1.4,2,2.5,4,3.3,5.9
			c-2.7,0.3-5.2,1.3-7.2,3l1.7,2c1.7-1.5,4-2.3,6.4-2.4c0.3,1.2,0.5,2.3,0.5,3.3C60.8,67.6,60.4,69.1,59.4,70.1z M70.1,73.8
			c-0.5,0.2-0.9,0.4-1.4,0.4C69.1,73.9,69.6,73.8,70.1,73.8C70.2,73.7,70.1,73.7,70.1,73.8z"/>
		<path class="st0" d="M27.8,34c1.1,0,2-0.9,2-2c0-1.1-0.9-2-2-2s-2,0.9-2,2C25.8,33.1,26.7,34,27.8,34z"/>
	</g>
</g>
</svg>
