<?xml version="1.0" encoding="utf-8"?>
<!-- Generator: Adobe Illustrator 26.1.0, SVG Export Plug-In . SVG Version: 6.00 Build 0)  -->
<svg version="1.1" id="Calque_1" xmlns="http://www.w3.org/2000/svg" xmlns:xlink="http://www.w3.org/1999/xlink" x="0px" y="0px"
	 viewBox="0 0 95 95" style="enable-background:new 0 0 95 95;" xml:space="preserve">
<style type="text/css">
	.st0{fill:#FFFFFF;}
</style>
<g>
	<circle class="st0" cx="48.2" cy="11" r="9.7"/>
</g>
<g>
	
		<rect x="23.4" y="42.6" transform="matrix(9.352286e-02 -0.9956 0.9956 9.352286e-02 -29.463 72.4358)" class="st0" width="3.2" height="19.5"/>
</g>
<path class="st0" d="M88.8,30.5l-2.1-1.7c-0.6-0.5-1.5-0.4-2,0.2L83,31.1l-10.8-8.6l1.7-2.1c0.4-0.5,0.4-1.5-0.2-2l-2.1-1.7
	c-0.6-0.5-1.5-0.4-2,0.2l-5.4,6.7c-0.5,0.6-0.4,1.5,0.2,2l2.1,1.7c0.6,0.5,1.5,0.4,2-0.2l1.6-2l1.8,1.4c-0.2,0.1-0.4,0.3-0.6,0.5
	l-7.9,8l-12.3-9.5c-3.6-2.7-8.3-3.2-12.4-1.2l-14.5,7.4c-1.5,0.8-2.4,2.3-2.3,4l0.7,14.6L21,50.1l0.2-2.6c0.1-0.9-0.5-1.5-1.3-1.6
	l-2.7-0.2c-0.8-0.1-1.5,0.5-1.6,1.3l-0.8,8.5c-0.1,0.8,0.5,1.5,1.3,1.6l2.7,0.2c0.8,0.1,1.5-0.5,1.6-1.3l0.2-2.6l2.3,0.2
	c0.5,1.9,2.2,3.3,4.2,3.3c0.1,0,0.1,0,0.2,0c1.7-0.1,3-1.1,3.7-2.5l1.7,0.2l-0.2,2.8c-0.1,0.8,0.5,1.5,1.3,1.6l2.7,0.2
	c0.1,0,0.1,0,0.2,0c0.7,0,1.3-0.6,1.4-1.3l0.8-8.5c0.1-0.9-0.5-1.6-1.3-1.6l-2.7-0.2c-0.1,0-0.1,0-0.2,0c-0.7,0-1.3,0.6-1.4,1.3
	L33,51.3l-1.7-0.2L30.7,38l4.8-2.4L35,45.9c0,0,0,0,0.1,0l2.6,0.2c0.8,0,1.5,0.4,2.1,1c0.6,0.7,0.9,1.5,0.8,2.4L39.9,58l0,0l0,0
	c-0.2,1.5-1.5,2.7-3,2.7c-0.1,0-0.2,0-0.3,0l-2.5-0.2l-8.8,13L12.6,84.1c-2,1.7-2.3,4.8-0.5,6.8c1,1.1,2.3,1.7,3.7,1.7
	c1.1,0,2.2-0.4,3.1-1.2l12.9-11.1c0.3-0.3,0.6-0.6,0.9-1L42,65.6l11.1,7.5l-3.7,14.5c-0.7,2.6,0.9,5.2,3.5,5.9
	c0.4,0.1,0.8,0.1,1.2,0.1c2.2,0,4.1-1.5,4.7-3.6l4.5-17.8c0.5-2-0.3-4-2-5.2l-11.1-7.5c0.2-0.6,0.3-1.2,0.3-1.9l1-21.1l9.8,7.5
	c1.7,1.3,4.2,1.2,5.7-0.4l10.5-10.7c0.4-0.4,0.7-0.8,0.9-1.3l2.6,2.1l-1.7,2.1c-0.5,0.6-0.4,1.5,0.2,2l2.1,1.7
	c0.6,0.5,1.5,0.4,2-0.2l5.4-6.7C89.6,31.9,89.5,31.1,88.8,30.5z"/>
</svg>
